# xmcd
#
# Track frame offsets:
# 150
# 16059
# 35883
# 53631
# 74955
# 93329
# 112712
# 130445
# 150430
# 173164
# 192172
#
# Disc length: 2773 seconds
#
#
# Revision: 0
# Processed by: cddbd v1.5.1PL0 Copyright (c) Steve Scherf et al.
# Submitted via: FreeRIP 2.942 
#
DISCID=8e0ad30b
DTITLE=Chris Cagle - Anywhere But Here 
DYEAR=2005
DGENRE=Country
TTITLE0=You Might Want To Think About It
TTITLE1=Wal-Mart Parking Lot
TTITLE2=Miss Me Baby
TTITLE3=Maria
TTITLE4=Anywhere But Here
TTITLE5=You Still Do That To Me
TTITLE6=Hey Ya'll
TTITLE7=I Was Made For You
TTITLE8=Wanted Dead Or Alive
TTITLE9=When I Get There
TTITLE10=I'd Find You
EXTD=
EXTT0=
EXTT1=
EXTT2=
EXTT3=
EXTT4=
EXTT5=
EXTT6=
EXTT7=
EXTT8=
EXTT9=
EXTT10=
PLAYORDER=
